<svg width="35" height="35" viewBox="0 0 35 35" fill="none" xmlns="http://www.w3.org/2000/svg">
<path d="M5.30415 5.00833L18.05 17.5077L5.39894 30.1223C5.19249 29.8524 5.03187 29.5504 4.92353 29.2283C4.86664 28.8635 4.86664 28.4921 4.92353 28.1273V6.66062C4.88561 6.08458 5.01832 5.50853 5.30269 5.00833M23.5406 12.0564L19.38 16.1777L6.78582 3.79208C7.19415 3.65062 7.63165 3.61124 8.05894 3.67833C8.72978 3.86208 9.36998 4.14499 9.95769 4.51395L21.356 10.8212C22.0969 11.2194 22.8187 11.6379 23.5406 12.0564ZM19.3814 18.8567L23.5216 22.9225L20.5204 24.5937L11.3635 29.6833C10.6052 30.1019 9.84394 30.5014 9.10311 30.9579C8.78618 31.1554 8.43072 31.283 8.0605 31.332C7.69029 31.3811 7.31387 31.3505 6.95644 31.2423L19.3814 18.8567ZM30.1148 17.5077C30.1262 18.0178 29.9977 18.5213 29.7432 18.9635C29.4886 19.4057 29.1178 19.7697 28.671 20.016L25.2498 21.9148L20.7479 17.5077L25.2687 13.0248C26.4281 13.6708 27.5685 14.3169 28.7075 14.925C29.1619 15.1786 29.5352 15.5558 29.7841 16.0129C30.0329 16.4701 30.1485 16.9883 30.1148 17.5077Z" fill="#03045E"/>
</svg>
