<svg width="35" height="35" viewBox="0 0 35 35" fill="none" xmlns="http://www.w3.org/2000/svg">
<g clip-path="url(#clip0_346_390)">
<path d="M25.5748 29.42C24.1048 30.845 22.4998 30.62 20.9548 29.945C19.3198 29.255 17.8198 29.225 16.0948 29.945C13.9348 30.875 12.7948 30.605 11.5048 29.42C4.18476 21.875 5.26476 10.385 13.5748 9.965C15.5998 10.07 17.0098 11.075 18.1948 11.165C19.9648 10.805 21.6598 9.77 23.5498 9.905C25.8148 10.085 27.5248 10.985 28.6498 12.605C23.9698 15.41 25.0798 21.575 29.3698 23.3C28.5148 25.55 27.4048 27.785 25.5598 29.435L25.5748 29.42ZM18.0448 9.875C17.8198 6.53 20.5348 3.77 23.6548 3.5C24.0898 7.37 20.1448 10.25 18.0448 9.875Z" fill="#03045E"/>
</g>
<defs>
<clipPath id="clip0_346_390">
<rect width="35" height="35" fill="white"/>
</clipPath>
</defs>
</svg>
