<svg width="19" height="22" viewBox="0 0 19 22" fill="none" xmlns="http://www.w3.org/2000/svg">
<path d="M12.272 2.01952L13.232 0.287516C13.2443 0.265323 13.2521 0.240929 13.2549 0.215726C13.2578 0.190523 13.2556 0.165005 13.2486 0.14063C13.2416 0.116255 13.2299 0.0934988 13.2141 0.0736618C13.1983 0.0538248 13.1787 0.0372951 13.1565 0.0250165C13.1343 0.0127379 13.1099 0.00495085 13.0847 0.00209996C13.0595 -0.000750942 13.034 0.00139018 13.0096 0.008401C12.9852 0.0154118 12.9625 0.027155 12.9426 0.0429603C12.9228 0.0587655 12.9063 0.0783231 12.894 0.100517L11.924 1.85052C11.096 1.48747 10.2016 1.30002 9.2975 1.30002C8.39336 1.30002 7.49904 1.48747 6.671 1.85052L5.701 0.100517C5.6762 0.0554297 5.63451 0.0220404 5.58509 0.00769385C5.53568 -0.00665268 5.48259 -0.000781277 5.4375 0.0240165C5.39241 0.0488142 5.35902 0.090507 5.34468 0.139923C5.33033 0.189339 5.3362 0.24243 5.361 0.287516L6.321 2.01952C5.40759 2.47001 4.63586 3.16332 4.09045 4.02342C3.54503 4.88353 3.24699 5.87722 3.229 6.89552H15.366C15.3478 5.87701 15.0495 4.88318 14.5037 4.02305C13.9579 3.16292 13.1858 2.46973 12.272 2.01952ZM6.497 4.67452C6.39668 4.67452 6.29862 4.64476 6.21522 4.589C6.13183 4.53325 6.06684 4.45401 6.0285 4.36131C5.99015 4.2686 5.98017 4.16661 5.99982 4.06824C6.01946 3.96986 6.06785 3.87952 6.13885 3.80866C6.20986 3.73779 6.30029 3.68959 6.3987 3.67014C6.49712 3.65069 6.59909 3.66087 6.69171 3.6994C6.78434 3.73792 6.86345 3.80306 6.91904 3.88657C6.97463 3.97008 7.0042 4.0682 7.004 4.16852C7.00373 4.30281 6.9502 4.43151 6.85515 4.52637C6.7601 4.62124 6.63129 4.67452 6.497 4.67452ZM12.099 4.67452C11.9987 4.67452 11.9006 4.64476 11.8172 4.589C11.7338 4.53325 11.6688 4.45401 11.6305 4.36131C11.5922 4.2686 11.5822 4.16661 11.6018 4.06824C11.6215 3.96986 11.6698 3.87952 11.7409 3.80866C11.8119 3.73779 11.9023 3.68959 12.0007 3.67014C12.0991 3.65069 12.2011 3.66087 12.2937 3.6994C12.3863 3.73792 12.4655 3.80306 12.521 3.88657C12.5766 3.97008 12.6062 4.0682 12.606 4.16852C12.6057 4.30281 12.5522 4.43151 12.4571 4.52637C12.3621 4.62124 12.2333 4.67452 12.099 4.67452ZM3.227 16.1715C3.22674 16.3646 3.26459 16.5558 3.33838 16.7342C3.41217 16.9126 3.52046 17.0747 3.65703 17.2112C3.79359 17.3477 3.95576 17.4558 4.13422 17.5295C4.31268 17.6032 4.50393 17.6409 4.697 17.6405H5.67V20.6405C5.67 21.0013 5.81334 21.3474 6.06848 21.6025C6.32362 21.8577 6.66967 22.001 7.0305 22.001C7.39133 22.001 7.73738 21.8577 7.99252 21.6025C8.24766 21.3474 8.391 21.0013 8.391 20.6405V17.6405H10.205V20.6405C10.205 21.0012 10.3483 21.3471 10.6033 21.6022C10.8584 21.8572 11.2043 22.0005 11.565 22.0005C11.9257 22.0005 12.2716 21.8572 12.5267 21.6022C12.7817 21.3471 12.925 21.0012 12.925 20.6405V17.6405H13.899C14.0918 17.6406 14.2828 17.6028 14.4609 17.529C14.6391 17.4553 14.801 17.3472 14.9373 17.2108C15.0737 17.0745 15.1818 16.9126 15.2555 16.7345C15.3293 16.5563 15.3671 16.3653 15.367 16.1725V7.37552H3.227V16.1715ZM1.36 7.14152C0.999295 7.14205 0.65353 7.28564 0.398566 7.54079C0.143603 7.79594 0.000264446 8.14181 0 8.50252V14.1715C-2.66131e-09 14.3501 0.0351773 14.527 0.103524 14.692C0.17187 14.857 0.272047 15.0069 0.398335 15.1332C0.524622 15.2595 0.674548 15.3596 0.83955 15.428C1.00455 15.4963 1.1814 15.5315 1.36 15.5315C1.5386 15.5315 1.71545 15.4963 1.88045 15.428C2.04545 15.3596 2.19538 15.2595 2.32167 15.1332C2.44795 15.0069 2.54813 14.857 2.61648 14.692C2.68482 14.527 2.72 14.3501 2.72 14.1715V8.50252C2.71947 8.14198 2.57602 7.79637 2.32108 7.54144C2.06615 7.2865 1.72053 7.14305 1.36 7.14252M17.232 7.14252C16.8713 7.14305 16.5255 7.28664 16.2706 7.54179C16.0156 7.79694 15.8723 8.14281 15.872 8.50352V14.1725C15.872 14.3511 15.9072 14.528 15.9755 14.693C16.0439 14.858 16.144 15.0079 16.2703 15.1342C16.3966 15.2605 16.5465 15.3606 16.7116 15.429C16.8766 15.4973 17.0534 15.5325 17.232 15.5325C17.4106 15.5325 17.5874 15.4973 17.7524 15.429C17.9175 15.3606 18.0674 15.2605 18.1937 15.1342C18.32 15.0079 18.4201 14.858 18.4885 14.693C18.5568 14.528 18.592 14.3511 18.592 14.1725V8.50252C18.5915 8.14198 18.448 7.79637 18.1931 7.54144C17.9381 7.2865 17.5925 7.14305 17.232 7.14252Z" fill="#03045E"/>
</svg>
